<?xml version="1.0" encoding="iso-8859-1"?>
<!-- Generator: Adobe Illustrator 19.0.0, SVG Export Plug-In . SVG Version: 6.00 Build 0)  -->
<svg version="1.1" id="Layer_1" xmlns="http://www.w3.org/2000/svg" xmlns:xlink="http://www.w3.org/1999/xlink" x="0px" y="0px"
	 viewBox="0 0 512 512" style="enable-background:new 0 0 512 512;" xml:space="preserve">
<g transform="translate(1 1)">
	<g>
		<path d="M408.6-1H101.4c-5.12,0-8.533,3.413-8.533,8.533v34.133c0,23.893,18.773,42.667,42.667,42.667h34.133v25.6
			c0,23.893,18.773,42.667,42.667,42.667H229.4v128c0,14.507,11.093,25.6,25.6,25.6c20.48,0,40.107,8.533,55.467,23.893
			c14.507,14.507,22.187,34.133,21.333,55.467c-0.853,39.253-34.133,73.387-74.24,74.24c-38.4,1.707-71.68-26.453-77.653-64
			c-2.56-12.8-12.8-21.333-24.747-21.333h-1.707c-6.827,0-13.653,3.413-18.773,8.533s-6.827,12.8-5.973,19.627
			c10.24,64,64,108.373,126.293,108.373c5.973,0,11.947,0,17.067-0.853c57.173-7.68,100.693-51.2,109.227-108.373
			c9.387-66.56-33.28-130.56-98.133-145.067c-1.707,0-2.56-1.707-2.56-3.413V152.6h17.067c23.893,0,42.667-18.773,42.667-42.667
			v-25.6h34.133c23.893,0,42.667-18.773,42.667-42.667V7.533C417.133,2.413,413.72-1,408.6-1z M279.747,273.773
			c56.32,12.8,93.867,68.267,85.333,125.44c-6.827,49.493-45.227,87.04-94.72,93.867c-60.587,7.68-115.2-33.28-124.587-93.013
			c0-2.56,0-4.267,1.707-5.973c1.707-1.707,3.413-2.56,5.973-2.56h1.707c3.413,0,6.827,2.56,6.827,6.827
			c7.68,46.08,49.493,80.213,95.573,78.507c48.64-1.707,89.6-42.667,91.307-91.307c0.853-25.6-8.533-49.493-26.453-68.267
			c-17.92-17.92-41.813-28.16-67.413-28.16c-5.12,0-8.533-3.413-8.533-8.533v-128h17.067v100.693
			C263.533,263.533,270.36,271.213,279.747,273.773z M323.267,101.4H280.6c-5.12,0-8.533,3.413-8.533,8.533s3.413,8.533,8.533,8.533
			h41.291c-3.391,10.103-12.734,17.067-24.224,17.067h-25.6h-34.133h-25.6c-14.507,0-25.6-11.093-25.6-25.6v-25.6h136.533V101.4z
			 M400.067,41.667c0,14.507-11.093,25.6-25.6,25.6H331.8H178.2h-42.667c-11.491,0-20.833-6.963-24.224-17.067H152.6
			c5.12,0,8.533-3.413,8.533-8.533s-3.413-8.533-8.533-8.533h-42.667V16.067h290.133V41.667z"/>
	</g>
</g>
<g>
</g>
<g>
</g>
<g>
</g>
<g>
</g>
<g>
</g>
<g>
</g>
<g>
</g>
<g>
</g>
<g>
</g>
<g>
</g>
<g>
</g>
<g>
</g>
<g>
</g>
<g>
</g>
<g>
</g>
</svg>
